<mxfile host="app.diagrams.net" modified="2022-04-08T07:51:23.181Z" agent="5.0 (Macintosh; Intel Mac OS X 10_14_6) AppleWebKit/537.36 (KHTML, like Gecko) Chrome/99.0.4844.84 Safari/537.36" etag="KZG3iUA_mOeFDpjL5WpK" version="17.4.0" type="github">
  <diagram id="EP3ZhbLRTsMXNdT5pMj4" name="Page-1">
    <mxGraphModel dx="1858" dy="644" grid="1" gridSize="10" guides="1" tooltips="1" connect="1" arrows="1" fold="1" page="1" pageScale="1" pageWidth="827" pageHeight="1169" math="0" shadow="0">
      <root>
        <mxCell id="0" />
        <mxCell id="1" parent="0" />
        <mxCell id="fEesoudIv6dtrnfG05lx-1" value="" style="rounded=1;whiteSpace=wrap;html=1;fillColor=#e1d5e7;strokeColor=#9673a6;" parent="1" vertex="1">
          <mxGeometry x="-10" y="340" width="870" height="360" as="geometry" />
        </mxCell>
        <mxCell id="fEesoudIv6dtrnfG05lx-2" value="" style="rounded=0;whiteSpace=wrap;html=1;fillColor=#d5e8d4;strokeColor=#82b366;" parent="1" vertex="1">
          <mxGeometry x="20" y="370" width="540" height="300" as="geometry" />
        </mxCell>
        <mxCell id="fEesoudIv6dtrnfG05lx-3" style="edgeStyle=orthogonalEdgeStyle;rounded=0;orthogonalLoop=1;jettySize=auto;html=1;" parent="1" source="fEesoudIv6dtrnfG05lx-5" target="fEesoudIv6dtrnfG05lx-12" edge="1">
          <mxGeometry relative="1" as="geometry" />
        </mxCell>
        <mxCell id="fEesoudIv6dtrnfG05lx-4" value="更新世界的状态" style="edgeLabel;html=1;align=center;verticalAlign=middle;resizable=0;points=[];" parent="fEesoudIv6dtrnfG05lx-3" vertex="1" connectable="0">
          <mxGeometry x="0.1294" y="2" relative="1" as="geometry">
            <mxPoint x="26" y="-2" as="offset" />
          </mxGeometry>
        </mxCell>
        <mxCell id="fEesoudIv6dtrnfG05lx-5" value="Scheduler" style="rounded=1;whiteSpace=wrap;html=1;fillColor=#f8cecc;strokeColor=#b85450;" parent="1" vertex="1">
          <mxGeometry x="230" y="400" width="120" height="60" as="geometry" />
        </mxCell>
        <mxCell id="fEesoudIv6dtrnfG05lx-6" value="API 用户脚本调用" style="rounded=1;whiteSpace=wrap;html=1;fillColor=#f8cecc;strokeColor=#b85450;" parent="1" vertex="1">
          <mxGeometry x="230" y="480" width="120" height="60" as="geometry" />
        </mxCell>
        <mxCell id="fEesoudIv6dtrnfG05lx-7" value="GraalVm" style="rounded=1;whiteSpace=wrap;html=1;fillColor=#f8cecc;strokeColor=#b85450;" parent="1" vertex="1">
          <mxGeometry x="380" y="475" width="170" height="150" as="geometry" />
        </mxCell>
        <mxCell id="fEesoudIv6dtrnfG05lx-8" style="edgeStyle=orthogonalEdgeStyle;rounded=0;orthogonalLoop=1;jettySize=auto;html=1;" parent="1" source="fEesoudIv6dtrnfG05lx-10" target="fEesoudIv6dtrnfG05lx-12" edge="1">
          <mxGeometry relative="1" as="geometry">
            <Array as="points">
              <mxPoint x="110" y="590" />
            </Array>
          </mxGeometry>
        </mxCell>
        <mxCell id="fEesoudIv6dtrnfG05lx-9" value="更新世界的状态" style="edgeLabel;html=1;align=center;verticalAlign=middle;resizable=0;points=[];" parent="fEesoudIv6dtrnfG05lx-8" vertex="1" connectable="0">
          <mxGeometry x="-0.1176" y="-3" relative="1" as="geometry">
            <mxPoint x="15" y="3" as="offset" />
          </mxGeometry>
        </mxCell>
        <mxCell id="fEesoudIv6dtrnfG05lx-10" value="脚本运行器" style="rounded=1;whiteSpace=wrap;html=1;fillColor=#f8cecc;strokeColor=#b85450;" parent="1" vertex="1">
          <mxGeometry x="230" y="560" width="120" height="60" as="geometry" />
        </mxCell>
        <mxCell id="fEesoudIv6dtrnfG05lx-11" value="" style="rounded=0;whiteSpace=wrap;html=1;fillColor=#dae8fc;strokeColor=#6c8ebf;" parent="1" vertex="1">
          <mxGeometry x="560" y="370" width="260" height="300" as="geometry" />
        </mxCell>
        <mxCell id="fEesoudIv6dtrnfG05lx-12" value="State" style="rounded=1;whiteSpace=wrap;html=1;fillColor=#f8cecc;strokeColor=#b85450;" parent="1" vertex="1">
          <mxGeometry x="50" y="480" width="120" height="60" as="geometry" />
        </mxCell>
        <mxCell id="fEesoudIv6dtrnfG05lx-13" value="用户编写的脚本 js 或其他语言" style="rounded=0;whiteSpace=wrap;html=1;fillColor=#f8cecc;strokeColor=#b85450;" parent="1" vertex="1">
          <mxGeometry x="670" y="480" width="120" height="80" as="geometry" />
        </mxCell>
        <mxCell id="fEesoudIv6dtrnfG05lx-14" style="edgeStyle=orthogonalEdgeStyle;rounded=0;orthogonalLoop=1;jettySize=auto;html=1;entryX=1;entryY=0.5;entryDx=0;entryDy=0;" parent="1" source="fEesoudIv6dtrnfG05lx-13" target="fEesoudIv6dtrnfG05lx-6" edge="1">
          <mxGeometry relative="1" as="geometry">
            <Array as="points">
              <mxPoint x="730" y="510" />
            </Array>
          </mxGeometry>
        </mxCell>
        <mxCell id="fEesoudIv6dtrnfG05lx-15" value="调用 API" style="edgeLabel;html=1;align=center;verticalAlign=middle;resizable=0;points=[];" parent="fEesoudIv6dtrnfG05lx-14" vertex="1" connectable="0">
          <mxGeometry x="-0.3515" y="-4" relative="1" as="geometry">
            <mxPoint x="17" as="offset" />
          </mxGeometry>
        </mxCell>
        <mxCell id="fEesoudIv6dtrnfG05lx-16" style="edgeStyle=orthogonalEdgeStyle;rounded=0;orthogonalLoop=1;jettySize=auto;html=1;entryX=1;entryY=0.5;entryDx=0;entryDy=0;" parent="1" source="fEesoudIv6dtrnfG05lx-20" target="fEesoudIv6dtrnfG05lx-10" edge="1">
          <mxGeometry relative="1" as="geometry">
            <Array as="points">
              <mxPoint x="610" y="590" />
              <mxPoint x="610" y="590" />
            </Array>
          </mxGeometry>
        </mxCell>
        <mxCell id="fEesoudIv6dtrnfG05lx-17" value="加载并运行脚本" style="edgeLabel;html=1;align=center;verticalAlign=middle;resizable=0;points=[];" parent="fEesoudIv6dtrnfG05lx-16" vertex="1" connectable="0">
          <mxGeometry x="-0.5687" y="3" relative="1" as="geometry">
            <mxPoint y="7" as="offset" />
          </mxGeometry>
        </mxCell>
        <mxCell id="fEesoudIv6dtrnfG05lx-18" value="&lt;font style=&quot;font-size: 16px&quot; color=&quot;#cc0000&quot;&gt;Script Shell&lt;/font&gt;" style="text;html=1;strokeColor=none;fillColor=none;align=center;verticalAlign=middle;whiteSpace=wrap;rounded=0;strokeWidth=3;" parent="1" vertex="1">
          <mxGeometry x="20" y="380" width="100" height="30" as="geometry" />
        </mxCell>
        <mxCell id="fEesoudIv6dtrnfG05lx-19" value="&lt;font style=&quot;font-size: 16px&quot; color=&quot;#cc0000&quot;&gt;User Script&lt;/font&gt;" style="text;html=1;strokeColor=none;fillColor=none;align=center;verticalAlign=middle;whiteSpace=wrap;rounded=0;" parent="1" vertex="1">
          <mxGeometry x="570" y="380" width="100" height="30" as="geometry" />
        </mxCell>
        <mxCell id="fEesoudIv6dtrnfG05lx-20" value="可以存放在 IPFS 或者数据库, 或者从 Game Server 中获取" style="rounded=0;whiteSpace=wrap;html=1;fillColor=#f8cecc;strokeColor=#b85450;" parent="1" vertex="1">
          <mxGeometry x="670" y="560" width="120" height="60" as="geometry" />
        </mxCell>
        <mxCell id="fEesoudIv6dtrnfG05lx-21" value="&lt;font style=&quot;font-size: 16px&quot; color=&quot;#cc0000&quot;&gt;Script Server&lt;/font&gt;" style="text;html=1;strokeColor=none;fillColor=none;align=center;verticalAlign=middle;whiteSpace=wrap;rounded=0;strokeWidth=3;" parent="1" vertex="1">
          <mxGeometry x="364" y="340" width="100" height="30" as="geometry" />
        </mxCell>
      </root>
    </mxGraphModel>
  </diagram>
</mxfile>
